<?xml version="1.0" encoding="UTF-8" standalone="no"?>
<!DOCTYPE svg PUBLIC "-//W3C//DTD SVG 1.1//EN" "http://www.w3.org/Graphics/SVG/1.1/DTD/svg11.dtd">
<svg width="100%" height="100%" viewBox="0 0 48 48" version="1.1" xmlns="http://www.w3.org/2000/svg" xmlns:xlink="http://www.w3.org/1999/xlink" xml:space="preserve" style="fill-rule:evenodd;clip-rule:evenodd;stroke-linejoin:round;stroke-miterlimit:1.5;">
    <g id="Layer1">
        <clipPath id="_clip1">
            <path d="M44.058,48l-39.364,0l19.682,-19.682l19.682,19.682Zm-23.925,-23.925l-20.133,20.134l0,-40.267l20.133,20.133Zm27.867,-19.381l0,38.762l-19.381,-19.381l19.381,-19.381Zm-23.624,15.139l-19.832,-19.833l39.665,0l-19.833,19.833Z"/>
        </clipPath>
        <g clip-path="url(#_clip1)">
            <path d="M32.3,37.84c0,1.088 -0.153,2.064 -0.459,2.93c-0.306,0.866 -0.734,1.602 -1.284,2.207c-0.55,0.606 -1.204,1.069 -1.963,1.392c-0.758,0.322 -1.59,0.483 -2.495,0.483c-0.918,0 -1.76,-0.161 -2.524,-0.483c-0.765,-0.323 -1.423,-0.786 -1.973,-1.392c-0.55,-0.605 -0.978,-1.341 -1.284,-2.207c-0.306,-0.866 -0.459,-1.842 -0.459,-2.93l0,-0.576c0,-1.087 0.151,-2.064 0.454,-2.93c0.303,-0.865 0.729,-1.601 1.279,-2.207c0.55,-0.605 1.206,-1.071 1.968,-1.396c0.762,-0.326 1.601,-0.488 2.519,-0.488c0.905,0 1.739,0.162 2.5,0.488c0.762,0.325 1.418,0.791 1.968,1.396c0.55,0.606 0.98,1.342 1.289,2.207c0.309,0.866 0.464,1.843 0.464,2.93l0,0.576Zm-3.486,-0.595c0,-1.413 -0.236,-2.486 -0.708,-3.218c-0.472,-0.733 -1.148,-1.099 -2.027,-1.099c-0.918,0 -1.603,0.366 -2.055,1.099c-0.453,0.732 -0.679,1.805 -0.679,3.218l0,0.595c0,1.394 0.231,2.465 0.693,3.213c0.463,0.749 1.149,1.123 2.061,1.123c0.872,0 1.543,-0.372 2.012,-1.118c0.468,-0.745 0.703,-1.818 0.703,-3.218l0,-0.595Z" style="fill-rule:nonzero;"/>
            <path d="M45.572,39.842c-0.033,0.742 -0.192,1.421 -0.479,2.036c-0.286,0.616 -0.684,1.143 -1.191,1.582c-0.508,0.44 -1.117,0.782 -1.827,1.026c-0.709,0.244 -1.503,0.366 -2.382,0.366c-0.951,0 -1.799,-0.159 -2.544,-0.478c-0.746,-0.319 -1.377,-0.777 -1.895,-1.373c-0.517,-0.595 -0.911,-1.321 -1.181,-2.177c-0.271,-0.856 -0.406,-1.818 -0.406,-2.886l0,-0.771c0,-1.068 0.142,-2.03 0.425,-2.886c0.283,-0.856 0.687,-1.584 1.211,-2.183c0.524,-0.599 1.154,-1.059 1.89,-1.382c0.735,-0.322 1.556,-0.483 2.461,-0.483c0.924,0 1.743,0.128 2.456,0.386c0.713,0.257 1.316,0.613 1.811,1.069c0.495,0.456 0.882,0.996 1.162,1.621c0.28,0.625 0.453,1.305 0.518,2.041l-3.418,0c-0.013,-0.397 -0.067,-0.749 -0.161,-1.055c-0.095,-0.306 -0.243,-0.559 -0.445,-0.761c-0.201,-0.202 -0.459,-0.355 -0.771,-0.459c-0.313,-0.104 -0.697,-0.157 -1.152,-0.157c-0.424,0 -0.791,0.079 -1.104,0.235c-0.312,0.156 -0.573,0.403 -0.781,0.742c-0.208,0.339 -0.363,0.776 -0.464,1.313c-0.101,0.538 -0.151,1.184 -0.151,1.939l0,0.791c0,0.755 0.045,1.4 0.136,1.934c0.091,0.533 0.236,0.971 0.435,1.313c0.198,0.342 0.459,0.591 0.781,0.747c0.322,0.156 0.718,0.235 1.187,0.235c0.787,0 1.39,-0.186 1.806,-0.557c0.417,-0.371 0.638,-0.96 0.664,-1.768l3.409,0Z" style="fill-rule:nonzero;"/>
            <g>
                <clipPath id="_clip2">
                    <path d="M-1,0.152l48,0l0,28l-29,0l0,20l-19,0l0,-48Z"/>
                </clipPath>
                <g clip-path="url(#_clip2)">
                    <path d="M29.995,2.546l-12.996,5.132l-13.697,-4.385l0,37.158l14.192,4.401l14.193,-5.422l13.914,1.727l0,-37.017l-15.606,-1.594Zm12.006,6.942l-7.425,-1.495l-3.573,1.412l-6.39,0.498l-1.674,1.279l0.333,0.373l-0.063,0.806l-0.855,-0.042l-0.108,1.445l5.787,3.903l1.53,4.334l2.097,-2.101l-0.513,-1.054l-0.666,0.415l-0.54,-1.271l3.6,1.844l0.666,3.122l1.98,-3.155l0.54,1.436l1.224,1.262l0.288,-2.134l0.54,-0.282l1.278,-1.495l-0.99,-2.74l0.414,-0.398l1.26,1.345l0.09,-0.291l0.738,-4.318l0.414,0.249l0,16.641l-0.846,-0.333l-1.62,-0.124l-1.665,-1.08l0.18,-0.631l-1.44,-0.216l-3.114,3.106l0.405,3.903l5.328,0.871l0.045,1.121l1.404,0.349l1.305,-2.126l0,3.438l-10.8,-1.328l-13.806,5.272l-10.457,-3.238l0,-24.163l1.476,-0.042l0.306,2.591l-1.008,2.541l2.826,4.924l1.043,-1.943l-1.106,0.639l-0.234,-1.744l2.051,-0.913l0.234,1.021l0.09,0.025l2.88,-4.301l0.027,0.017l-0.288,-1.121l1.98,-0.855l-1.818,-2.375l-0.684,-1.644l-7.757,0.581l0,-3.338l10.232,3.271l13.41,-5.289l11.457,1.163l0,2.374l-0.018,0.009Z" style="fill-rule:nonzero;"/>
                    <path d="M18.925,29.366l-2.61,-2.076l0.09,-1.27l-2.817,-1.868l-1.62,0.664l-2.726,3.803l3.824,2.906l-0.054,3.587l2.322,4.251l1.197,-2.922l-0.153,-1.345" style="fill-rule:nonzero;"/>
                    <path d="M27.664,21.088l-1.683,0.357l-0.36,-2.45l-0.45,-0.166l-0.27,0.498l-1.575,-1.287l-4.716,3.471l0,2.026l3.285,1.462l0.063,-0.532l1.962,1.528l-0.792,0.581l0.414,0.947l0,3.006l1.233,4.018l5.58,-10.811l-1.287,0.059" style="fill-rule:nonzero;"/>
                    <path d="M18.709,21.295l0,0.1l0,-0.1" style="fill-rule:nonzero;"/>
                </g>
            </g>
        </g>
    </g>
    <path d="M4,4l40,40" style="fill:none;stroke:#000;stroke-width:1.91px;"/>
    <path d="M4,44l40,-40" style="fill:none;stroke:#000;stroke-width:1.91px;"/>
</svg>
